/* XPM */
static char *brick_wall64[] = {
/* columns rows colors chars-per-pixel */
"64 43 238 2 ",
"   c #77291F",
".  c #4C342C",
"X  c #583D34",
"o  c #58342B",
"O  c #6C2C25",
"+  c #662C25",
"@  c #712E25",
"#  c #7C2D23",
"$  c #6D342C",
"%  c #66382C",
"&  c #72342C",
"*  c #7D342A",
"=  c #743A2D",
"-  c #7C3A2E",
";  c #7D3227",
":  c #673D33",
">  c #7B3C33",
",  c #733B32",
"<  c #5C443C",
"1  c #654135",
"2  c #6B4334",
"3  c #6A453A",
"4  c #6D483B",
"5  c #65463B",
"6  c #734236",
"7  c #7B4235",
"8  c #74453B",
"9  c #734B3C",
"0  c #7D473B",
"q  c #7B4937",
"w  c #644940",
"e  c #734D41",
"r  c #7D4D42",
"t  c #7B5443",
"y  c #7D5A4B",
"u  c #765547",
"i  c #7B5E51",
"p  c #6F5147",
"a  c #7E6252",
"s  c #872D1F",
"d  c #92301F",
"f  c #842E22",
"g  c #892F21",
"h  c #833125",
"j  c #8C3225",
"k  c #83352B",
"l  c #8B3629",
"z  c #85392E",
"x  c #8C392C",
"c  c #933424",
"v  c #933728",
"b  c #943B2C",
"n  c #9B3D2C",
"m  c #9C3826",
"M  c #843D33",
"N  c #8C3D32",
"B  c #943E31",
"V  c #9B3F30",
"C  c #A23E2B",
"Z  c #A53A27",
"A  c #844236",
"S  c #8D4134",
"D  c #824439",
"F  c #8B453A",
"G  c #844A3D",
"H  c #8B4A3C",
"J  c #934234",
"K  c #9C4334",
"L  c #93453A",
"P  c #9B4639",
"I  c #934B3C",
"U  c #9C4B3C",
"Y  c #994A37",
"T  c #8E513E",
"R  c #82503D",
"E  c #96513D",
"W  c #9D402E",
"Q  c #A4412E",
"!  c #AC432E",
"~  c #A34433",
"^  c #AB4532",
"/  c #A54836",
"(  c #AB4936",
")  c #A34B3B",
"_  c #AB4D3B",
"`  c #A04638",
"'  c #B34B35",
"]  c #B34E39",
"[  c #B64932",
"{  c #AC513E",
"}  c #A5503E",
"|  c #B3523C",
" . c #BB563E",
".. c #B2462F",
"X. c #8C4D42",
"o. c #824D42",
"O. c #944E42",
"+. c #9B4D41",
"@. c #825444",
"#. c #8D5344",
"$. c #845C4B",
"%. c #8C5C4C",
"&. c #885648",
"*. c #945343",
"=. c #9B5343",
"-. c #935946",
";. c #945C4B",
":. c #9B5B4B",
">. c #985649",
",. c #895D51",
"<. c #935E52",
"1. c #9C5E51",
"2. c #A44F40",
"3. c #A45343",
"4. c #AA5443",
"5. c #A45C4B",
"6. c #AC5A4A",
"7. c #A65946",
"8. c #B35541",
"9. c #B25946",
"0. c #B25C49",
"q. c #BB5A44",
"w. c #A95F51",
"e. c #88614E",
"r. c #9B614E",
"t. c #94624C",
"y. c #846554",
"u. c #8B6453",
"i. c #8C6C5D",
"p. c #896957",
"a. c #926451",
"s. c #9D6352",
"d. c #946A55",
"f. c #9B6A54",
"g. c #936D5A",
"h. c #9C6D5B",
"j. c #986658",
"k. c #9C7055",
"l. c #94735D",
"z. c #9C735C",
"x. c #9A785E",
"c. c #8E705D",
"v. c #A3634D",
"b. c #AB634E",
"n. c #A26A4F",
"m. c #B3634B",
"M. c #BA634C",
"N. c #B9694E",
"B. c #A36352",
"V. c #AB6553",
"C. c #A46A54",
"Z. c #AB6B54",
"A. c #A36C5A",
"S. c #AB6C5A",
"D. c #A16758",
"F. c #B26552",
"G. c #B36C54",
"H. c #BA6D54",
"J. c #B36D5A",
"K. c #BA6753",
"L. c #A57154",
"P. c #A4725C",
"I. c #AC735C",
"U. c #A47A5D",
"Y. c #AB795D",
"T. c #AE7156",
"R. c #B47256",
"E. c #BA7156",
"W. c #B4745C",
"Q. c #BA745B",
"!. c #B47A5E",
"~. c #BC7A5E",
"^. c #8E7262",
"/. c #947563",
"(. c #9C7562",
"). c #9D7A64",
"_. c #9B7E6A",
"`. c #A37663",
"'. c #AB7562",
"]. c #A37C64",
"[. c #AC7B63",
"{. c #A37D69",
"}. c #AC7E6A",
"|. c #A47668",
" X c #B37561",
".X c #B47C64",
"XX c #BC7C63",
"oX c #B47C6A",
"OX c #BB7F6A",
"+X c #B97362",
"@X c #B36F61",
"#X c #C05D44",
"$X c #C2775D",
"%X c #C27C62",
"&X c #C17964",
"*X c #9E816E",
"=X c #AD8166",
"-X c #A4826C",
";X c #AB836C",
":X c #A88367",
">X c #B48166",
",X c #BC8266",
"<X c #B3836B",
"1X c #BC836A",
"2X c #B48A6D",
"3X c #BC8B6D",
"4X c #A58670",
"5X c #AB8572",
"6X c #AC8B74",
"7X c #A58A75",
"8X c #B48471",
"9X c #BB8571",
"0X c #B28B73",
"qX c #BC8B73",
"wX c #B78C79",
"eX c #AE927D",
"rX c #B49174",
"tX c #BC9175",
"yX c #B5937B",
"uX c #BC957B",
"iX c #BC9A7D",
"pX c #C38264",
"aX c #C1856C",
"sX c #C7886B",
"dX c #C38D73",
"fX c #C68D75",
"gX c #C49375",
"hX c #C3947C",
"jX c #C59A7C",
"kX c #CA967A",
"lX c #C4926E",
"zX c #C5A17F",
"xX c #BC9B82",
"cX c #B69982",
"vX c #C69D86",
"bX c #C7A285",
"nX c #D1AB8E",
"mX c #C8AD95",
/* pixels */
"O * N @ O > <.+ + + $ + : i.> $ + > 7 > , u.O O & > & & <.p.< . < w < w 7X3 , 8 8 : D , *Xw r e : : o.e p., + > D O & j.r O + $ ",
"; M L * * :.j.$ + 0 o.D o./.& & = F M M D h.M - > O.k & <.i.< . . < w < cX+ + $ o.7 L M 7Xe e w : e r e ,.> & > D > X.|.o.@ & > ",
"e./.(.j.j.|.;Xf.(.wX2X[.`.h.A.A.|.*X`.f.(.(.'.oX}.-X|.|.{.7X{.7XcXcX}._.cX|.j./.5X4X|.h.}.h.h.(._.(.u.p./.g.y./.i p p i ,.y u /.",
"M |.N * k X.>.O * }.* k ; * k z M 4X* * B - B P -.`.L o.&.>.5.5._.h.O.X.+.O.M F _.6 O @ & * * r |.D M M M M $ i w $ & , $ D 8 ^.",
"#.;X=.E =.r.s.H U 0XI O.O.*.=.I I yX;.r.C.s.T.C.z.;X:.B.Y.Y. X@XwX'.B.j.|.1.>.1.cXu.G &.#.#.#.j.5X#.&.;.;.&.y _.y.,.,.,.y.y.i.7X",
"M H >.O.>.s.;X:.s.D.:.5.5.<.(.H t &.G G :.'.S.5.+.Q.J.@X+XvX<.<.%.<.&.w.<.cXoX@X9X`.(.w.g.oXJ.F.w.O.O.O.|.%.X.O.&.X.>.&._.p < p ",
"h L I P _ N <XB b z N B B *.j.  $ = M N B '.9.~ ~ 0.9.0.0.hXX.N X.X.O.2.>.fX+.+.V.A.1.+.s.+X4.) 2.V +.N '.+.+.L M M N > ^.i w p ",
"f.A.[.'.I.B.}.s.C.I.[. XI.Y.5XA.P.`.[..XS.[.Q.Z.Z.Q.T.W.aXvX}.'.8XwX5X}.(.uXj.(.|.<X.X'.<XhXoX1XOXOXoXoXwX XoX XoX XoX|.oX|.}.oX",
"J z [.#.H F D G =.-.=Xl h # x z b N <XK n ( { / 8.9.oX+.2.6.B.2.2.S.A.5.L 3.O.$.3 ).6.2.2.6.3.6.6. X+.+.+.B.3.L A.4.9.0.2.2.4.5.",
"=.=.0Xa.G T T H #.G 0XJ Y E =.Y E U qX/ { m.M.m.0.F.vXOXaXvX'.S.w.oX(.s.j.S.j.k.u.4XK.G.F.H.F.G.F.1X5.B.S.+XV.3.'.0.F.V.5.V.J.V.",
"6.7.V.7.{ } 5.qXG.V.B.;.:.v.2XT.Z. XI.B.V.Q.vXS.>.:.S.S.w.1.hXJ.+X+X@XB.B.wX_.^.^.i.i./.^.7X<.&.a.D.-.>.|.|.B.j.j.&.o.&.^.&.<.,.",
"~ ( } ( _ ~ } aX_ U P ) ) 4.[.G.) P P ) { { wXb b P +.P ` w.qX) 3.) ` B N  X/.i i.y.y i.i _.+.B 3.+.+.2.D.A.O.>.D M O.o.{.F +.+.",
"W.!.I.Y.!.I.[.dXC.I.!..X1X,XuXdX,XXX>X1X1X!.uX.XoXqX1X=X.X0XbXqX1X0X.X'.<XhX0X0XcXwXuX5X0XiXd.].8X0XqXqXbX6X5X;X-X{.5X(.wX|.9X<X",
"_ ~ >.f.z @ L E U S U.) K b ~ _ J / >XW x l L J ) K aX9.q.&XJ.G.6.S.+XK.K.M.9.4.P '._ 0.F.=.2.9.7.F.K b _ 5.7._ s.k k M L L J F ",
"E.Z.C.P.L A =.=.E E ;X4.K b / B b J 3Xm n W U ) _ V hXH.F.XXW.!.3.B.J.4.9.M.q.0.2.S.) 6.F.*.0.K.b.v.U U } 5.6.U t.L P 2.3.+.I =.",
"z.f.z.g.e.P.x.gXH.Q.Q.E.b.Z.R.pXN.m.H.N.7.N.,X).j. XA.-.B.-.].t.t.A..X.XXXtXI.C.C. XC.W.W.6Xl.d.e.u.u.u.-X=XP.j.p.A.}.i.cX}.oXoX",
"7 F F H H Y 2 aXW W ~ Q W ~ m.E.C m ^ ( ! ^ E.p.0 F M ; l z z.K B ) ) U K <XS j l B N B J /.> > 7 % 7 D i.1.N o.8 +.w.e |.@X@X@X",
"k.U.=X=X=X>X:XjXR.R.R.,X,XpX,XlXQ.R.,X,XR.,XsXx.k.Y.].I.I.[.rXY.!.>X<XXX.XhX[.B.S..XI.'.Y.6Xl.x.].U.2X;XcXwX0XwX5XwXcX{.cXoXwX9X",
"N l K S.j j j s s s Y M.! Q Z Q ! ~ E.W c d W ~ b K v.l J K W Q ~ OXB f g b H l l C.# h f L A k >.U 2.2.) 6.) P }.M N z L N N w.",
"K K K V.s j j s j g Y m.Q Q Q m ' ^ E.W b Q Q W c ~ 5.b K U ) { 4.XXB k j K 5.x b V.b l ~ V.N l B.2.6.4.2.4.2.B '.z N V P N B >.",
"x.d.e.l.x.:XU.I.5.G.T.G.b.G.,XC.b.:.B.v.:.v.3Xn.A.+X.XV.B..X2XI.P.<XP.A.I.rX!.R.W.W.T.T.Y.rXx./._.).l.c.4XP.s.B.'.B.B.<.5XD.1.<.",
"R 2 1 t 4 9 9 v.v b b c v b W.5.k # #     s .XK B ~ ) / / J.'.~ ~ x j x k ].~ ~ _ b n b b -XX . X 1 1 1 ^.A @ * k k - * D.* * # ",
":Xx.x.).).:X;X3XT.'.!.N.E.Q.gX[.n.Z.Z.s.s.A.bXW.!.XXXX~.XXdXxXI.P.I.P.>XY.xXR.G.~.R.Q.W.S.xXl.l._.*Xl.y.eX0X;X}.].`.h.`.0XS.D.D.",
"E K ) gX( { ~ Q ^ ( } q.Q c m m d d T.^ Q !  .' | q.0X9 3 2 t 1 9 l.U ~ v ~ K W / Y.4 4 @.9 @.f.g.$.6 $ G G 7 % z.> N F = F P :.",
"S b W fX! ) ! Q [ ^ { | ^ m ^ ~ Q C OX' ' ' | ] ' q.0X@.9 $.u.e.$.-X0./ ~ _ ) ~ / P.: D T G r.T e.y 2 8 -.G 0 6 (.7 N z k ) +.5.",
"r.G.b..X7.v.>XQ.N.E.E.~.+XaXjX$XE.$X%X$X%X%XhXQ.J.Q.aXXX$XdXkX+X.X,XXX+X1XbXdXXX!. XdX,X,XjXS.T.T.S.W.W.oX;Xt.-.s.C.'. X6XW.v.B.",
"K W Q { ( W G.F.W ~ / W Q ~ qXM.' ] | | ( ' kX| _ ] | ] | { 1XK K / ~ / _ 9X_ K W ~ F.K ) uX~ / P K W K *.'.) ~ U 6.6.0.].4.` K ",
".X>X1XaX,XW.gXdXW.~.aX~.XXOXbXaXXX%X%X$X$XQ.nXpX%XpX%X%XXX%XvX>X!.1XsXsXdXbXXXW.W.J. XT.'.bX<X<X.XI.I..X[.iX8X5XuXqX<XtXyXoX9X<X",
"J J 3.W.K Q C _ ~ W !.{ b v C _ ~ | dX_ ( _ _ ( K / x.D E #.= 7.3.6Xb h k x b ; h .X_ ) 3.~ ~ J V.B.) B N M * M fX4.+.B z P ` 3.",
"~ K 3.E.C ~ ^ ] Q Q ~.{ ^ ! ] q. .8.gX^ ^ _ ^ ' ^ Q <X3.5.5.*.b.5.;XB K n n v l b fX/ _ _ ' ( ~ m.XX2._ ) U P 2.OX2.2.2.~ 2.+.2.",
"W.b.Z.~.R.XX.XgX~.Q.>X!.Q.~.gXiX.XL.[.Y.Y.XXtXI.C.C.=XL.I.2X3X!.Y..X9XdXOXuX<X1XOXvXaXaX1X.XS.W.1X.XS.W.oX|.oX9X}.}.oXuXOXoXS.'.",
"c c n g c C S >XW b b s m W >XB.h # x N b J U.k g f l J b C.v.W v K V.U b 8XK K ~ _ ~ ( / W.9.4._ ^ ^ V D.o.B +.M V B 5.>.K B ` ",
"G.m.H.Z.$XE.L.rXm.m.m.7.N.m.lX>XC.f.T.!.T.Z.uXI.S.S..X>X1XtXqXW.W.!.1XY.C.uXC.W.Q.Q.Q.Q.W.qXQ.~.G.H.W.F.<XU. X X'..X XoX[.!.!.+X",
"A H l.-.Y J J Y K 6 iX7.} Y ) Y / 3.kX^ ! ] #X . .$XOX) / Y ) K K 1XU K K } ) ~ ) .X2.U P B K N Y.l b b v n n n 0X3 1 : : 1 9 p.",
"n n d.Y W m Q W Q l uXb c c Q c m } pX..[ [  .[ [ #XG.n v ~ n n K ,XB b b n b n n s.V U K x K x T.B ~ Q n v b b }.3 3 3 X : 3 e.",
"U.P.:XY.L.Y.>X3Xd.t.3XL.R.~.sX>XG..XXXQ.E.$XgXY.f.[.h.a.P.l.vX;X`.{.}.8X;XcXaX+X+XW.C.z.l.0Xl.u.y.y t $.p.|.I.A.P.a.A.'.}.'.Z.C.",
"R 2 9 -.q $.k.:Xo o m Y Q ! | T.^ ^ n C ' Q ,X@.2 2 2 2 e.@.0X@.@.t @.&.t i.} K / Y J T t 7XX < . 5 5 w i s.B B z l ~ K P._ _ _ ",
"Y.L.L.=X:X=X2XrXp.e.v.Y.L.R.pX3XXXaX,XXXsX,XzX=X].;X-X6XyXrXmX].).4X-X-X).yX!.Q.aX.X.X>X).cXl./.*XeX7X6XcXyX[.>XoX<XaX<XvXI.oX+X",
"} { R.p.q 4 4 9 t 9 >XM.] '  .| | | bXU U S L 7.=.C.~.W W _ / Y U lX:.U K / ~ ~ } :Xt y.9 u t @.k.C.J J L z k = P.@.7 L > > >.B.",
"Z Z R.9 1 o 1 2 4 2 lX! ! Z ^ ..' ] jXJ l b K b b -.G.( W { ) ~ J >XJ c c v v c c :Xe.9 3 y 4 t d.-.h g l k ; & ].7 G G 7 G X.#.",
"R.Y.,X:Xk.L.:X:X=Xk.x.n.n.T.lXT.Z.L.:Xd.k.k.lXE.Q.R.E.N.R.lXjXsXXXgX,X.XaXgXXXQ.E.fXsXsXfXiX:X;XqX0X<X<XtXdXOXI.aX1XXXXXaXn.b.n.",
"; 6 - 2 = 2 9 :XT T Y T 7 Y 2Xf g ; - q G 2 sX! ! ! ! ^ | #XaX/ b ~ 4._ 8.gX( Q Z ^ Q ! ' =X-.3.U S P ) r.F.V v / ~ B K .Xl l v ",
"-.t.n.t.k.n.:X:Xn.Y.=X,XT.T.zXL.n.n.!.Y.:Xl.nXE.$XpX~.pXpXlXkXpX+X1XdX1X1XbXH.H.H.N.N.m.N.tXx.Y..XI.W.C.<XaXQ.Q.XXH.b.Z.uXV.G.H."
};
