/* XPM */
static char *grey_wall64[] = {
/* columns rows colors chars-per-pixel */
"64 45 217 2 ",
"   c #1E1D1A",
".  c #1A1917",
"X  c #221E1B",
"o  c #241B17",
"O  c #24211E",
"+  c #2C221D",
"@  c #1C2428",
"#  c #242524",
"$  c #2A2723",
"%  c #2B2926",
"&  c #222629",
"*  c #262A2C",
"=  c #2B2C2B",
"-  c #272826",
";  c #322E2A",
":  c #312A24",
">  c #2E302E",
",  c #33312D",
"<  c #3A322C",
"1  c #242D33",
"2  c #292E31",
"3  c #2D3233",
"4  c #2D353A",
"5  c #263036",
"6  c #333433",
"7  c #393632",
"8  c #363836",
"9  c #3C3935",
"0  c #343A3C",
"q  c #3B3C3A",
"w  c #343739",
"e  c #443C35",
"r  c #433E3A",
"t  c #4C3E35",
"y  c #4A3C32",
"u  c #3E403F",
"i  c #44413C",
"p  c #4B433C",
"a  c #4D443B",
"s  c #54453C",
"d  c #58473B",
"f  c #674C3A",
"g  c #6B513F",
"h  c #70523F",
"j  c #2F3B41",
"k  c #333D42",
"l  c #393E41",
"z  c #3C4244",
"x  c #364449",
"c  c #3B4649",
"v  c #3C494D",
"b  c #344045",
"n  c #3D4C52",
"m  c #434543",
"M  c #4A4641",
"N  c #444846",
"B  c #4B4A45",
"V  c #444748",
"C  c #434A4B",
"Z  c #4C4D4B",
"A  c #534B43",
"S  c #5B4E44",
"D  c #544E49",
"F  c #544A43",
"G  c #4E504D",
"H  c #5C5046",
"J  c #54524C",
"K  c #5B544C",
"L  c #5C584F",
"P  c #454E52",
"I  c #4A4E50",
"U  c #465256",
"Y  c #4D5354",
"T  c #4B555A",
"R  c #4C595D",
"E  c #44545A",
"W  c #535553",
"Q  c #5B5751",
"!  c #555955",
"~  c #5C5A54",
"^  c #515559",
"/  c #535A5C",
"(  c #5B5C5A",
")  c #624E41",
"_  c #635145",
"`  c #63554B",
"'  c #63584E",
"]  c #6B594C",
"[  c #6A5445",
"{  c #735C4A",
"}  c #735642",
"|  c #635C54",
" . c #6A5D53",
".. c #625F5B",
"X. c #605750",
"o. c #5C625E",
"O. c #57605E",
"+. c #77604E",
"@. c #6B6155",
"#. c #64625C",
"$. c #6B635C",
"%. c #6E685E",
"&. c #756355",
"*. c #72655B",
"=. c #75695C",
"-. c #7A6A5C",
";. c #786556",
":. c #4E5D62",
">. c #535D61",
",. c #5B5F62",
"<. c #575F69",
"1. c #556063",
"2. c #5C6363",
"3. c #5C646A",
"4. c #5C6A6D",
"5. c #55696C",
"6. c #5E6970",
"7. c #646463",
"8. c #6A6662",
"9. c #646965",
"0. c #6C6A65",
"q. c #62666B",
"w. c #646B6B",
"e. c #6B6C6B",
"r. c #736C64",
"t. c #7A6D63",
"y. c #726E6B",
"u. c #766C66",
"i. c #6C716E",
"p. c #66706E",
"a. c #74726D",
"s. c #7B736C",
"d. c #7D7369",
"f. c #646C72",
"g. c #6B6E72",
"h. c #627274",
"j. c #6C7274",
"k. c #6C747B",
"l. c #6E7A7C",
"z. c #667079",
"x. c #737473",
"c. c #7B7672",
"v. c #747875",
"b. c #7B7975",
"n. c #727579",
"m. c #747A7C",
"M. c #7B7C7C",
"N. c #706F70",
"B. c #866854",
"V. c #847469",
"C. c #827B75",
"Z. c #897E74",
"A. c #827E7B",
"S. c #847B75",
"D. c #7C807E",
"F. c #77807E",
"G. c #83817D",
"H. c #8B837B",
"J. c #8C8175",
"K. c #93877B",
"L. c #94867A",
"P. c #6D7881",
"I. c #747C82",
"U. c #7B7E81",
"Y. c #757E89",
"T. c #7C8283",
"R. c #7C838B",
"E. c #798587",
"W. c #7E8792",
"Q. c #838483",
"!. c #8A8682",
"~. c #8C8985",
"^. c #82858A",
"/. c #85898C",
"(. c #8B8B8B",
"). c #868886",
"_. c #938C85",
"`. c #928F8C",
"'. c #958B82",
"]. c #94918D",
"[. c #9A938D",
"{. c #848B93",
"}. c #8B8E92",
"|. c #848D99",
" X c #8D9194",
".X c #8C939B",
"XX c #949393",
"oX c #999692",
"OX c #9B9896",
"+X c #92969A",
"@X c #95989B",
"#X c #9B9B9B",
"$X c #98979B",
"%X c #8F908E",
"&X c #A19E9B",
"*X c #A29B96",
"=X c #AAA29C",
"-X c #A3A09F",
";X c #959BA3",
":X c #9C9EA2",
">X c #A19FA0",
",X c #9DA1A5",
"<X c #9DA3AA",
"1X c #9CA4B0",
"2X c #A3A2A3",
"3X c #AAA6A2",
"4X c #A3A6AB",
"5X c #A7A9AD",
"6X c #AAA9AA",
"7X c #ADA9A5",
"8X c #B1A7A0",
"9X c #B4B1AE",
"0X c #A5ACB3",
"qX c #A6ADB6",
"wX c #ADB1B6",
"eX c #B5B7B8",
"rX c #B0AFB0",
/* pixels */
"p s a ~ ..s ; < , ; ; 9 r r A Z.| ' K D | r.a.@.( ~ B B 9 , 9 p D J J K L H.H.G.H.J.V.H.K.K.J.L.K.K.K.K.L.L.[.8XZ.e - - $ ; ; q ",
"' Q K r.S.d.u.8.$.$.Q X.$...Q s.J a p p Q C.Q   o     O O # + O O $ % + $ , % $ $.;.+.&.{ g +.+.;.;.+.B.B.B.V.8XZ.+ # X X X X   ",
"e : % , D r ; e D s.o o $ o o o + + < e u.!.| X X . . O # + ; = % ; < % % : % + c.t.` +.&.g g ;.=.=.+.B.B.V.K.=XK.| | F r r D ..",
"e e p s D ` K  .Z.S. .8.8. . .D s.G.c.s.!.].'.y.$.y.s.s.A.H.!.H._.OXG.%.%.0.y.a._.~.[.J.J.J.d.H.J.d.V.J.H.J.K._.J.;.-.=.=.r.8.y.",
", % 7 e p i M M r W Q *.*.V.t d H H =.' ` $.K D A F K d.!.r.0.%.@.A.J.&.=.*.` g =.-.-.+.} -.+.H.h h f f `  .+.H  .S F e r e F a.",
"$ O ; , 7 r p B Q D |  . .[.V. .s a ' $.0.s.t.$.| L ` $.`.r.0.0.$.H.'.[ ]  .H ' *.t.-.=.` ] { H.[ ;.d.d.t.b.b.c.y.N.y.0.u.A.Q.C.",
"9 Q u.y.A.!.!.A.Z._.A.$.V.9X'.d.d.r.r.K D [.[.t.|  .~ ' @.| | @.r.=.&.] &.-.J.OXoX].XX!.M.M.v.D.c.J.%.z C ! O.! 8.8.D r W 0.X   ",
"$ $ , % q K i 7 J | K H s.`.` s K K D 9 a =X[.) s d p A M d s p H _ _ f f h -.C.#.1./ R 3.4.4.4.a.D.o.u ! ! P U Z Y I M ..8..   ",
"= $ ; 7 ; e ; $ M r 9 ` L Z.s i K Q i Z H #X`.t t s M F ` u.r...$.r.t.t.V.t.b.!.#.W 4.j.v.p.l.l.a.r.0.Y Y T ^ ,.2.! q.8.A.x.Q W ",
"..X...M M F < $ r 7 r K ` $.S %.$.8.| K | %.| #...X.8.0.y.u.d.V.s._.).Q.).H.(.~.H.D.(.(.[.[.%X].G.M.a.b.A.A.A.G.Q.Q.[.( Q D i l ",
"#...,.( Q e.x.W r M M D ~ S.S.a.A.s p A s _ _ ` ` s ) ) t d d t t t.! O.G c W / P B (.Q F.c.r.0.( G K K L L H D Q 8.`.-   X X @ ",
"= X X X + 8.8.!       X # X # % ..` _ K ` $.t.V.(.~.s.S.u.' H ` ] *Xb.v.v.j.x.D.~.OXoX0.a.c.J.c.0.a.8.8.0.0.y.x.oX:X`...q 9 w > ",
"J ..e.0.y.a.!.c.~ W Q Q ..8.0.c.oXOX~.H.G.Q.,.e.7.( Z I Z 9.`.J | u.a.A.`.).XX7XrX-XXXi.D.[.7XXX=X8X=X=X[.$X(.}.XX!.c.!.e.,.W n.",
"F F J ` | ` d H c.% z z z N Z N 0 q z z q c.$ - $ = % = > Q 3XB s F F A H D K 3X3Xi.U u u u Z G G.B B q q 7 ; O $ # & % O   # n.",
"d F H F F F t ` M.* w b l 4 6 0 = 0 W j.~.2Xc.9...,.m.~.XX2X6XoX8.$.S.8.~.oX(.7X9XY G G M G G i ).e.8.9.7.g.M.M.e.N.Q.}.U.U.U.I.",
"` D ` J K  .X. .~.7.W W 8.y.~.(.x.9.w.g.T.M.).).oX`.A.!.A.c.s.c.`.&X2X#XoXoX&X8X=X#X#X-XXXG.~.D.v.i.a.e.c.!.b.>X}.C.A.b.C.A.U.g.",
"7.,.q.e.8.g.U.XXc.A.A.c.C.A.A.XXI.>.R U n v v o.G.b._ S _ '  . .H.eX#X%.~ L L #.! #.q.6XG.J L L | #.L ~ L G D %Xc.%.0.$.H a ~ Z ",
"; $ $ $ $ $ ( b.e B F p t r r ..e.C R E n n n ! ).$.H _ [  .$.@.].eXXXi.a.c.b.b.b.D.).%XQ.B J J | 0.%.$.@.~ K 0.e.@.$.| A Z A i ",
"$ 6 i m m 7 N.X.< e a r r t r 8.N.3.<.T n v v O.Q.' ` ` ]  . .| -XeX#.; = , = % > = > = T.! B B B K @.a.a.%.@.%.M.0.#.%.8.,.i.v.",
"e.q.e.n.g.g.g.g.7.C.`.~.A.U.g.M.N.8.Q.}. Xm.v.D.#XH.G.0.s.(._.`.2X9X! - - = = - - = < > #XwX4XQ.D. X(.(.].].~.D.c.r.i.9.U.M.W x.",
"2 2 2 2 2 k l l l !.V M 6 % % % - - M.Q.~ ] ] ~ H %.!.7.~ p.T./. X+XE.D.D.].D.o.i.D.9.~ M.x.e.Q.a.v.F.F.T.E.F.D.a.9.( 2.e.x.# % ",
"1 2 4 l l V V q.U.m.= $ # # # # - - b._.] ' +.+.] K H.e.u T p.5.4.4.h.p.j.x.8., , > % , = % r oXi.F.F.E.E.D.D.D.r.#./ 7.( U.# & ",
",.g.U.{.M.U.^.}.}.U.! ( ! e.9.e.e.n./.(.8.v.Q.F.Q.T..Xa.u O.4.:.O.5.h.j.p.0.~ 7 9 8 8 8 8 = ! #Xa.F.E.F.D.D.D.D.b.0.9.e.e.M.2.g.",
"l P j k 0 W q.q.w.e.,.>.P P / m.T T T v R.q.U R / 1.2.O.T O.i.F.).oX@X%X).T.T.v.e.7.j.j.i.9.M.6X#XOX6X6X=X:XoX].).#.D K X.8.%.e.",
"6 l P l I ( ( Q ( ( Y / C ^ Y m.n v v v v.U.C b c c v x x n n N Z L M.q.J ! ! 2.i.v.D.).(.XX@Xp.w.q./ T 3.2.,.V < #.r M D ( 7.2.",
",.g.k.U.}.n.g.n.n.x.{.~.C.).].!.Q.}.Q.Y.m.x.^.c v c v v n v C G G G v.Q.i i p D J J #.c.v.). XR :.R R 1.3.q./ i 6 s.m D ( g.y.3.",
"9 w 0 c P ,.M V l c u | i [ A B L %...C 3 Z #XD.i.4.2.2.O.O.! G O.o.%X6X/.M.G.c.c.0.c.c.G.-X+XQ. X Xm.(.+X$X+X;X^.M.m./.^.R.R.n.",
"k.|.P.n.k.f.,.! q.q./ 7.9 G J t.' #.$.! 0 B .XL L $.0.y.a.b.M.b.D.b.c.v.~.c.v.a.v.D.a.a.a.0.0.y.a.a.8.r.8.t.*.s.M.B M p i i i r ",
"M M B I Z W W ,.W ( N.m.Z r.8.b.s.b.i.w./ O./.T.XXXX%XF.T./.}.E.F.v.v.i.Q.~ o.o.j.F.M.F.m.M.U.Q.D.b.K K K D D x.$X9.x.j.j.k.n.j.",
"e r i M V u l M Z i ^.e.Z ( ! ! ! W ! J Z J J o.o.p.F.l.9.v.;X@X+X X#X,X/.D.).T.^.{.,X1X<X+XR.g.q.w.e.2X2XOX_.H.C.r.s.s.u.s.b.i.",
"q.0.n.P.n.n.g.e.q.x.+Xx.Y ( 9.7.o.i.9.i.i.j.p.9.o.i.j.p.2.o.b.9.9.0.a.j.0.j.v.p.j.p.+X<X/.v k 4 k k z 3.XXd.s.J.L.J.'.H.J.H.b.i.",
",.T U >.3.I.U.Y.R.{.}.Y./.+X#X$X:X2XwXeXeXwX0XwX<X5X0X<X<X:X).F.p.l.v.p.9.i.v.p.T.{.:X4XXXQ.T.U.m.M.M.^.2Xc.b.M.A.M.n.j.q.( w.j.",
"W.Y.Y.f.f.3.^ T T >.:.>.I.^..X;XT @ k P z 5 1 5 b E R.0Xv.b.=.D.r.G.D.c.<X@XF.v.i.9.2.4.a.&X).J.K._.].].OX#X$X(.^.!.Q.N.m 2 2 4 ",
"Z D Q ..7.N.n.I.U.}.;XXX^.^.^..X^.M.Y. X/./ 3.w.6.6.E.,Xi.i.0.i.0.a.j.j.@XF./.).(.%X(.oX].oXoX/. X%X#XXX#XOX).e.m.(.$X/.^.I.R.}.",
"r y r r 7 7 7 7 7 r N.P.T C C v z n R R Y >.T.4.4.1.v./.b.v.F.F.F.E.h.h.F.E.E.W.W.^./ 7 > 3 6 3 > > > > i M e.$XY b x k n n E E ",
"D Z D W Z M r m C T I.f.g.g.g.g.7.n.:X,X$X:X.Xm.l.l.v.F.2X7X#X#X-X#X,X XW.@X.X.X.X.X6X^.2.p.m./.^.{.w.).&X>X$X4X/.l.I.Y.R.{.$X}.",
"q.q.{.I.Y.{.Y.;XY.^.{.q.>.,.q.q.f.2.^.W 7 8 C Z B F o.~ i u i o.G.%Xu u u 3 u u V m V V l .XT P C N 0 1.T z - q +X0.^ / 3.2.1.1.",
"2 2 * 2 & & & , = $ ; = ; 7 ; = * = /.3.( k.N m 8 q 0.D.F.O.G L XX#XG u > u 3 * * 1 * 2 C q.1 c m k 0 V R U q Z 2X( C E U T E :.",
"l V ^ >.>.I I I I V V q.,.^ I >.P.,.:XqX0XrX6X2X/. X#X,X&XOXoX#X,X,X X+X,X,X,X.X;X.X.X.X;X1XI.n.$X,XwXwX4X4X<X<X:XR.{.R.R.R.k.k.",
"<.<.>.<.<.3.g.k.^.Y.{.C 2 w l I I I I q.a.e.~.2Xo.@.#.#.#.%.#.9.9.9.9.h.h.5.h.F.4XV l m q l V ^ 3.o.W W Z N N q V Z W q.~.W * 5 ",
"j @ @ @ @ j 1 1 4 q.}.V & @ # # - - * * = ; Z +X#.9.j.j.l.#.#.l.F.9.5.5.5.5.h.l.<Xu u = @ * & * * * * * * & & = * = 2 I 4X..2 @ ",
"P.Y.P.P.P.W.|.Y.|.|.{.{.P.Y.Y.I.Y.f.,.<.q.q.I.:XU.I.R.E.F.i.i.9.O.O.o.o.2.I./.@X,Xj.p.W V 9 3 2 l V 2 2 = 2 6 2 N I l q.qX}.W Y.",
"f.P.P.I.^.P.Y.I.I.n.7.{.I = = 2 u C I ^ 7.e.U.U.^..X.X+X@X<X0X<X:X:X%X X^.f.F.f.4.4.h.e.k.>.<.<.f.|.>X;X.X|..X;X;XI.z.<.^ ^ ^ >.",
"T I ^ ^ ,.,.e.8.c.N.,.^.W w = ; ; @ & # & 2 ; 6 ; > ; = * 3 a.5X2X5X.XE v P x b j k @ j j 1 j >.>.+X0X>X}.I.q.^ z l C v l k j 4 ",
".X|.|.|.z.z.I.q.f.k.n.|.{..X|.+X{./.}..X}./.G.Q.U.}.$X$X>X>X>Xy.O.F.&X2X@X X^.T.^..X^.;X>X>X$X.X+X.X.XU.M.3.I U :.>.T C j j 0 4 "
};
